<mxfile host="app.diagrams.net" agent="Mozilla/5.0 (Windows NT 10.0; Win64; x64) AppleWebKit/537.36 (KHTML, like Gecko) Chrome/132.0.0.0 Safari/537.36 Edg/132.0.0.0" version="26.0.11">
  <diagram name="Page-1" id="tdozJZ4HoBrvIU2dLXJa">
    <mxGraphModel dx="794" dy="458" grid="1" gridSize="10" guides="1" tooltips="1" connect="1" arrows="1" fold="1" page="1" pageScale="1" pageWidth="1100" pageHeight="850" math="0" shadow="0">
      <root>
        <mxCell id="0" />
        <mxCell id="1" parent="0" />
        <mxCell id="1z5NozobCozgPRVe0fp7-12" value="" style="shape=umlLifeline;perimeter=lifelinePerimeter;whiteSpace=wrap;html=1;container=1;dropTarget=0;collapsible=0;recursiveResize=0;outlineConnect=0;portConstraint=eastwest;newEdgeStyle={&quot;curved&quot;:0,&quot;rounded&quot;:0};participant=umlActor;" parent="1" vertex="1">
          <mxGeometry x="145" y="80" width="20" height="560" as="geometry" />
        </mxCell>
        <mxCell id="1z5NozobCozgPRVe0fp7-3" value="Server" style="shape=umlLifeline;perimeter=lifelinePerimeter;whiteSpace=wrap;html=1;container=1;collapsible=0;recursiveResize=0;outlineConnect=0;rounded=1;shadow=0;comic=0;labelBackgroundColor=none;strokeWidth=1;fontFamily=Verdana;fontSize=12;align=center;" parent="1" vertex="1">
          <mxGeometry x="400" y="80" width="100" height="580" as="geometry" />
        </mxCell>
        <mxCell id="1z5NozobCozgPRVe0fp7-4" value="" style="html=1;points=[];perimeter=orthogonalPerimeter;rounded=0;shadow=0;comic=0;labelBackgroundColor=none;strokeWidth=1;fontFamily=Verdana;fontSize=12;align=center;" parent="1z5NozobCozgPRVe0fp7-3" vertex="1">
          <mxGeometry x="45" y="120" width="10" height="360" as="geometry" />
        </mxCell>
        <mxCell id="1z5NozobCozgPRVe0fp7-5" value="Database" style="shape=umlLifeline;perimeter=lifelinePerimeter;whiteSpace=wrap;html=1;container=1;collapsible=0;recursiveResize=0;outlineConnect=0;rounded=1;shadow=0;comic=0;labelBackgroundColor=none;strokeWidth=1;fontFamily=Verdana;fontSize=12;align=center;" parent="1" vertex="1">
          <mxGeometry x="540" y="80" width="100" height="580" as="geometry" />
        </mxCell>
        <mxCell id="1z5NozobCozgPRVe0fp7-6" value="" style="html=1;points=[];perimeter=orthogonalPerimeter;rounded=0;shadow=0;comic=0;labelBackgroundColor=none;strokeWidth=1;fontFamily=Verdana;fontSize=12;align=center;" parent="1" vertex="1">
          <mxGeometry x="585" y="220" width="10" height="180" as="geometry" />
        </mxCell>
        <mxCell id="1z5NozobCozgPRVe0fp7-7" value="Store the product" style="html=1;verticalAlign=bottom;endArrow=block;labelBackgroundColor=none;fontFamily=Verdana;fontSize=12;edgeStyle=elbowEdgeStyle;elbow=vertical;" parent="1" edge="1">
          <mxGeometry relative="1" as="geometry">
            <mxPoint x="455" y="258" as="sourcePoint" />
            <Array as="points">
              <mxPoint x="460" y="258" />
            </Array>
            <mxPoint x="585" y="258" as="targetPoint" />
          </mxGeometry>
        </mxCell>
        <mxCell id="1z5NozobCozgPRVe0fp7-8" value="Enter Item Details" style="html=1;verticalAlign=bottom;endArrow=block;entryX=0;entryY=0;labelBackgroundColor=none;fontFamily=Verdana;fontSize=12;edgeStyle=elbowEdgeStyle;elbow=vertical;" parent="1" edge="1">
          <mxGeometry relative="1" as="geometry">
            <mxPoint x="155" y="209" as="sourcePoint" />
            <mxPoint x="305" y="209.00000000000034" as="targetPoint" />
          </mxGeometry>
        </mxCell>
        <mxCell id="1z5NozobCozgPRVe0fp7-9" value="Validation Successful" style="html=1;verticalAlign=bottom;endArrow=block;entryX=0;entryY=0;labelBackgroundColor=none;fontFamily=Verdana;fontSize=12;edgeStyle=elbowEdgeStyle;elbow=vertical;" parent="1" edge="1">
          <mxGeometry relative="1" as="geometry">
            <mxPoint x="315" y="234.2941176470589" as="sourcePoint" />
            <mxPoint x="445" y="234.00000000000034" as="targetPoint" />
          </mxGeometry>
        </mxCell>
        <mxCell id="1z5NozobCozgPRVe0fp7-10" value="" style="html=1;points=[];perimeter=orthogonalPerimeter;rounded=0;shadow=0;comic=0;labelBackgroundColor=none;strokeWidth=1;fontFamily=Verdana;fontSize=12;align=center;" parent="1" vertex="1">
          <mxGeometry x="150" y="170" width="10" height="230" as="geometry" />
        </mxCell>
        <mxCell id="1z5NozobCozgPRVe0fp7-11" value="alt" style="shape=umlFrame;whiteSpace=wrap;html=1;pointerEvents=0;" parent="1" vertex="1">
          <mxGeometry x="90" y="410" width="560" height="200" as="geometry" />
        </mxCell>
        <mxCell id="1z5NozobCozgPRVe0fp7-13" value="" style="endArrow=none;dashed=1;html=1;dashPattern=1 3;strokeWidth=2;rounded=0;exitX=-0.004;exitY=0.524;exitDx=0;exitDy=0;exitPerimeter=0;entryX=1.008;entryY=0.516;entryDx=0;entryDy=0;entryPerimeter=0;" parent="1" source="1z5NozobCozgPRVe0fp7-11" target="1z5NozobCozgPRVe0fp7-11" edge="1">
          <mxGeometry width="50" height="50" relative="1" as="geometry">
            <mxPoint x="430" y="400" as="sourcePoint" />
            <mxPoint x="480" y="350" as="targetPoint" />
          </mxGeometry>
        </mxCell>
        <mxCell id="1z5NozobCozgPRVe0fp7-14" value="&lt;font face=&quot;Verdana&quot; style=&quot;font-size: 14px;&quot;&gt;[Post Product Successful]&lt;/font&gt;" style="text;strokeColor=none;align=center;fillColor=none;html=1;verticalAlign=middle;whiteSpace=wrap;rounded=0;" parent="1" vertex="1">
          <mxGeometry x="110" y="470" width="200" height="30" as="geometry" />
        </mxCell>
        <mxCell id="1z5NozobCozgPRVe0fp7-15" value="&lt;font face=&quot;Verdana&quot; style=&quot;font-size: 14px;&quot;&gt;[Post Product Failed]&lt;/font&gt;" style="text;strokeColor=none;align=center;fillColor=none;html=1;verticalAlign=middle;whiteSpace=wrap;rounded=0;" parent="1" vertex="1">
          <mxGeometry x="110" y="535" width="200" height="30" as="geometry" />
        </mxCell>
        <mxCell id="1z5NozobCozgPRVe0fp7-16" value="" style="endArrow=block;dashed=1;endFill=0;endSize=12;html=1;rounded=0;" parent="1" edge="1">
          <mxGeometry width="160" relative="1" as="geometry">
            <mxPoint x="440" y="549.41" as="sourcePoint" />
            <mxPoint x="315" y="549" as="targetPoint" />
          </mxGeometry>
        </mxCell>
        <mxCell id="1z5NozobCozgPRVe0fp7-17" value="&lt;font face=&quot;Verdana&quot; style=&quot;font-size: 13px;&quot;&gt;Server Error&lt;/font&gt;" style="text;strokeColor=none;align=center;fillColor=none;html=1;verticalAlign=middle;whiteSpace=wrap;rounded=0;" parent="1" vertex="1">
          <mxGeometry x="330" y="524" width="100" height="30" as="geometry" />
        </mxCell>
        <mxCell id="1z5NozobCozgPRVe0fp7-18" value="" style="endArrow=block;dashed=1;endFill=0;endSize=12;html=1;rounded=0;exitX=0.131;exitY=0.527;exitDx=0;exitDy=0;exitPerimeter=0;" parent="1" edge="1">
          <mxGeometry width="160" relative="1" as="geometry">
            <mxPoint x="582.31" y="314.86" as="sourcePoint" />
            <mxPoint x="456" y="315" as="targetPoint" />
          </mxGeometry>
        </mxCell>
        <mxCell id="1z5NozobCozgPRVe0fp7-19" value="&lt;font style=&quot;font-size: 13px;&quot; face=&quot;Verdana&quot;&gt;Status&lt;/font&gt;" style="text;strokeColor=none;align=center;fillColor=none;html=1;verticalAlign=middle;whiteSpace=wrap;rounded=0;" parent="1" vertex="1">
          <mxGeometry x="490" y="310" width="60" height="30" as="geometry" />
        </mxCell>
        <mxCell id="1z5NozobCozgPRVe0fp7-20" value="" style="endArrow=block;dashed=1;endFill=0;endSize=12;html=1;rounded=0;entryX=1;entryY=0.5;entryDx=0;entryDy=0;" parent="1" edge="1">
          <mxGeometry width="160" relative="1" as="geometry">
            <mxPoint x="445" y="485" as="sourcePoint" />
            <mxPoint x="315" y="485" as="targetPoint" />
          </mxGeometry>
        </mxCell>
        <mxCell id="1z5NozobCozgPRVe0fp7-21" value="&lt;font style=&quot;font-size: 13px;&quot;&gt;Success Message&lt;/font&gt;" style="text;strokeColor=none;align=center;fillColor=none;html=1;verticalAlign=middle;whiteSpace=wrap;rounded=0;" parent="1" vertex="1">
          <mxGeometry x="326" y="459" width="120" height="30" as="geometry" />
        </mxCell>
        <mxCell id="LEEqzhAEGBMHWyeJjqnM-1" value="" style="group" vertex="1" connectable="0" parent="1">
          <mxGeometry x="255" y="80" width="110" height="580" as="geometry" />
        </mxCell>
        <mxCell id="1z5NozobCozgPRVe0fp7-1" value="Form Validation" style="shape=umlLifeline;perimeter=lifelinePerimeter;whiteSpace=wrap;html=1;container=0;collapsible=0;recursiveResize=0;outlineConnect=0;rounded=1;shadow=0;comic=0;labelBackgroundColor=none;strokeWidth=1;fontFamily=Verdana;fontSize=12;align=center;size=40;" parent="LEEqzhAEGBMHWyeJjqnM-1" vertex="1">
          <mxGeometry width="110" height="580" as="geometry" />
        </mxCell>
        <mxCell id="1z5NozobCozgPRVe0fp7-2" value="" style="html=1;points=[];perimeter=orthogonalPerimeter;rounded=0;shadow=0;comic=0;labelBackgroundColor=none;strokeWidth=1;fontFamily=Verdana;fontSize=12;align=center;" parent="LEEqzhAEGBMHWyeJjqnM-1" vertex="1">
          <mxGeometry x="50" y="100" width="10" height="400" as="geometry" />
        </mxCell>
      </root>
    </mxGraphModel>
  </diagram>
</mxfile>
